# xmcd
#
# Track frame offsets:
# 150
# 12515
# 30031
# 44281
# 61368
# 79528
# 96048
# 111007
# 126949
# 145795
# 159432
# 171930
# 187104
# 202088
# 214614
# 227181
# 242722
# 263631
# 275996
# 289631
#
# Disc length: 4129 seconds
#
#
# Revision: 0
# Processed by: cddbd v1.5.1PL2 Copyright (c) Steve Scherf et al.
# Submitted via: FreeRIP 2.943 
#
DISCID=1c101f14
DTITLE=Lourenco and Lourival - As 20 Mais
DYEAR=1900
DGENRE=Sertaneja Raiz
TTITLE0=Flor do Baile
TTITLE1=Franguinho na Panela
TTITLE2=Cruz que eu Carrego
TTITLE3=Como eu Chorei
TTITLE4=Velha Porteira
TTITLE5=Condenado por Amor
TTITLE6=O Dinheiro Compra Tudo
TTITLE7=Amor sem Fronteira
TTITLE8=As Tres Namoradas
TTITLE9=Anel de Noivado
TTITLE10=Amor Inocente
TTITLE11=Um Anode Saudade
TTITLE12=Minhas Ferias
TTITLE13=Meu Passarinho
TTITLE14=Buscando a Mineira
TTITLE15=Meu Reino Encantado
TTITLE16=Menina da Aldeia
TTITLE17=Bom de Beco
TTITLE18=Canto Chorando
TTITLE19=Os Tres Boiadeiros Japoneses
EXTD=
EXTT0=
EXTT1=
EXTT2=
EXTT3=
EXTT4=
EXTT5=
EXTT6=
EXTT7=
EXTT8=
EXTT9=
EXTT10=
EXTT11=
EXTT12=
EXTT13=
EXTT14=
EXTT15=
EXTT16=
EXTT17=
EXTT18=
EXTT19=
PLAYORDER=
